<?xml version="1.0" encoding="utf-8"?>
<!-- Generator: Adobe Illustrator 19.0.1, SVG Export Plug-In . SVG Version: 6.00 Build 0)  -->
<svg version="1.1" id="Layer_1" xmlns="http://www.w3.org/2000/svg" xmlns:xlink="http://www.w3.org/1999/xlink" x="0px" y="0px"
	 viewBox="-68.5 31.5 539 539" style="enable-background:new -68.5 31.5 539 539;" xml:space="preserve">
<style type="text/css">
	.st0{fill:#E5E5E5;}
	.st1{fill:#039BE5;}
	.st2{fill:#0277BD;}
	.st3{fill:#29B6F6;}
	.st4{fill:#81D4FA;}
</style>
<path class="st0" d="M385,566H17c-44.7,0-81-36.3-81-81V117c0-44.7,36.3-81,81-81h368c44.7,0,81,36.3,81,81v368
	C466,529.7,429.7,566,385,566z"/>
<g id="surface1">
	<path class="st1" d="M71.5,473.4c-2.4,0-4.7-0.3-7.1-1c-6.8-1.9-12.5-6.4-16-12.6c-2.2-4-3.4-8.6-3.4-13.2V155.5
		c-0.2-14.6,11.5-26.7,26.1-26.9c4.8-0.1,9.3,1.2,13.4,3.5l260.7,148.4c11.2,6.4,15.1,20.9,8.8,32.1c-2.1,3.7-5.1,6.7-8.7,8.8
		c0,0,0,0-0.1,0L84.5,470C80.5,472.2,76,473.4,71.5,473.4z"/>
	<path class="st2" d="M45,285.4v161.2c0,4.7,1.2,9.2,3.4,13.2c3.5,6.3,9.2,10.7,16.1,12.6c2.3,0.6,4.7,1,7.1,1c4.5,0,8.9-1.2,13-3.5
		l142.3-81.1L45,285.4z"/>
	<path class="st3" d="M86.1,237.7v231.4l243.6-138.7l-204-116.2c-4.1-2.3-8.6-3.6-13.4-3.5C97.6,210.9,85.9,223,86.1,237.7z"/>
	<path class="st1" d="M86.1,308.8v160.3l29.9-17l110.8-63.1L86.1,308.8z"/>
	<path class="st3" d="M215.3,366.7c-1.2,0-2.4-0.2-3.7-0.5c-3.8-1-7-3.6-8.9-7.1c-1.2-2.2-1.8-4.7-1.8-7.3V250.1
		c-0.1-8,6.2-14.6,14.1-14.8c2.7,0,5.3,0.7,7.5,2.1l86.8,51.9c6.3,3.8,8.4,11.8,4.9,18.3c-1.2,2.1-2.9,3.9-4.9,5.1c0,0,0,0,0,0
		l-86.9,52C220.4,366,217.8,366.7,215.3,366.7z"/>
	<path class="st4" d="M211.7,366.2c1.2,0.3,2.4,0.5,3.7,0.5c2.5,0,5-0.7,7.2-2l81.6-48.8L201,257.1v94.7c0,2.6,0.6,5.1,1.8,7.3
		C204.7,362.6,207.9,365.2,211.7,366.2z"/>
</g>
</svg>
